<?xml version="1.0" encoding="utf-8"?>
<!-- Generator: Adobe Illustrator 25.3.1, SVG Export Plug-In . SVG Version: 6.00 Build 0)  -->
<svg version="1.1" id="Ebene_1" xmlns="http://www.w3.org/2000/svg" xmlns:xlink="http://www.w3.org/1999/xlink" x="0px" y="0px"
	 viewBox="0 0 155 50" style="enable-background:new 0 0 155 50;" xml:space="preserve">
<style type="text/css">
	.st0{fill:#FFFFFF;}
</style>
<g>
	<path d="M48.2,36.64v-5.77h0.45v2.57h3.22v-2.57h0.44v5.77h-0.44v-2.8h-3.22v2.8H48.2z"/>
	<path d="M55.65,33.72c0-1.59,0.44-2.93,2.36-2.93c1.92,0,2.35,1.34,2.35,2.93c0,1.62-0.43,3.01-2.35,3.01
		C56.09,36.73,55.65,35.34,55.65,33.72z M56.12,33.72c0,1.31,0.27,2.63,1.89,2.63c1.62,0,1.88-1.32,1.88-2.63
		c0-1.32-0.26-2.54-1.88-2.54C56.39,31.17,56.12,32.4,56.12,33.72z"/>
	<path d="M66.43,35.91h0.02l2.15-5.03h0.57v5.77h-0.44v-4.9H68.7l-2.11,4.9h-0.34l-2.1-4.9h-0.02v4.9h-0.44v-5.77h0.58L66.43,35.91z
		"/>
	<path d="M75.38,35.91h0.02l2.15-5.03h0.57v5.77h-0.44v-4.9h-0.02l-2.11,4.9H75.2l-2.1-4.9h-0.02v4.9h-0.44v-5.77h0.58L75.38,35.91z
		"/>
	<path d="M84.77,36.64v-5.77h0.45v5.77H84.77z"/>
	<path d="M88.67,36.64v-5.77h0.45l3.3,4.94h0.02v-4.94h0.43v5.77h-0.44l-3.3-4.9h-0.02v4.9H88.67z"/>
	<path d="M98.18,31.28v5.36h-0.44v-5.36h-1.67v-0.41h3.78v0.41H98.18z"/>
	<path d="M106.53,31.28h-3.03v2.16h2.65v0.4h-2.65v2.4h3.07v0.4h-3.52v-5.77h3.48V31.28z"/>
	<path d="M113.42,36.64l-1.54-2.43h-1.62v2.43h-0.45v-5.77h2.29c1.09,0,1.65,0.75,1.65,1.66c0,0.85-0.5,1.51-1.41,1.6l1.59,2.5
		H113.42z M110.26,33.8H112c0.78,0,1.31-0.47,1.31-1.26c0-0.73-0.46-1.26-1.25-1.26h-1.8V33.8z"/>
	<path d="M120.63,35.02h-2.58l-0.59,1.62h-0.47l2.11-5.81h0.55l2.04,5.81h-0.49L120.63,35.02z M119.35,31.38l-1.2,3.26h2.38
		l-1.17-3.26H119.35z"/>
	<path d="M126.87,30.79c0.63,0,1.25,0.08,1.91,0.28l-0.1,0.38c-0.86-0.21-1.29-0.25-1.77-0.25c-1.6,0-1.93,1.2-1.93,2.52
		c0,1.4,0.32,2.61,1.93,2.61c0.48,0,0.92-0.04,1.77-0.25l0.1,0.38c-0.66,0.19-1.28,0.27-1.91,0.27c-1.92,0-2.36-1.36-2.36-3.01
		C124.51,32.13,124.95,30.79,126.87,30.79z"/>
	<path d="M133.97,31.28v5.36h-0.44v-5.36h-1.67v-0.41h3.78v0.41H133.97z"/>
	<path d="M138.83,36.64v-5.77h0.45v5.77H138.83z"/>
	<path d="M144.83,36.14l1.83-5.26h0.47l-2.04,5.81h-0.55l-2.11-5.81h0.5L144.83,36.14L144.83,36.14z"/>
	<path d="M153.77,31.28h-3.03v2.16h2.65v0.4h-2.65v2.4h3.07v0.4h-3.52v-5.77h3.48V31.28z"/>
</g>
<g>
	<path d="M47.55,24.65l0.46-2.24c1.84,0.42,3.16,0.51,4.03,0.51c0.93,0,1.63-0.36,1.63-1.04c0-0.92-1.17-1.07-2.57-1.48
		c-2.06-0.59-3.38-1.72-3.38-3.67c0-2.38,1.97-3.31,4.32-3.31c1.34,0,2.53,0.17,4.16,0.66l-0.6,2.24c-1.85-0.42-2.7-0.51-3.57-0.51
		c-0.94,0-1.46,0.39-1.46,0.99c0,0.78,0.99,1.02,2.46,1.36c2.06,0.48,3.48,1.48,3.48,3.5c0,2.55-1.99,3.65-4.49,3.65
		C50.69,25.32,49.18,25.15,47.55,24.65z"/>
	<path d="M59.1,25.15V13.59h2.7v11.56H59.1z"/>
	<path d="M69.78,15.98v9.16H67.1v-9.16h-2.97v-2.4h8.63v2.4H69.78z"/>
	<path d="M83.13,15.98h-5.34v2.01h4.57v2.4h-4.57v2.36h5.42v2.4h-8.13V13.59h8.04V15.98z"/>
	<path d="M92,20.66h0.03l2.31-7.07h3.6v11.56h-2.7v-6.73h-0.03l-2.38,6.73h-1.96l-2.29-6.73h-0.03v6.73h-2.63V13.59h3.59L92,20.66z"
		/>
	<path d="M107.03,22.7h-3.26l-0.7,2.45h-2.86l3.6-11.64h3.31l3.59,11.64h-3.01L107.03,22.7z M105.38,16.87l-1.07,3.57h2.18
		l-1.07-3.57H105.38z"/>
	<path d="M115.67,21.32v3.82h-2.7V13.59h5.01c2.48,0,3.96,1.51,3.96,3.88c0,2.38-1.48,3.86-3.96,3.86H115.67z M115.67,18.92h2.02
		c0.82,0,1.48-0.36,1.48-1.46s-0.66-1.48-1.48-1.48h-2.02V18.92z"/>
</g>
<g>
	<g>
		<defs>
			<circle id="SVGID_1_" cx="20" cy="25" r="20"/>
		</defs>
		<linearGradient id="SVGID_2_" gradientUnits="userSpaceOnUse" x1="0" y1="25" x2="40" y2="25">
			<stop  offset="0" style="stop-color:#FF006E"/>
			<stop  offset="1" style="stop-color:#B82F67"/>
		</linearGradient>
		<use xlink:href="#SVGID_1_"  style="overflow:visible;fill:url(#SVGID_2_);"/>
		<clipPath id="SVGID_3_">
			<use xlink:href="#SVGID_1_"  style="overflow:visible;"/>
		</clipPath>
	</g>
	<path class="st0" d="M25.63,29.07c-0.23,0-0.45,0.03-0.66,0.07l-1.75-3.78h1.44c1.48,0,2.68-1.2,2.68-2.68v-6.5
		c0-1.48-1.2-2.68-2.68-2.68h-9.32c-1.48,0-2.68,1.2-2.68,2.68v6.5c0,1.48,1.2,2.68,2.68,2.68h1.44l-1.75,3.78
		c-0.22-0.04-0.44-0.07-0.66-0.07c-2.05,0-3.72,1.66-3.72,3.72c0,2.05,1.67,3.72,3.72,3.72c2.05,0,3.72-1.67,3.72-3.72
		c0-1.16-0.54-2.18-1.37-2.86l2.11-4.57h2.34l2.11,4.57c-0.83,0.68-1.37,1.7-1.37,2.86c0,2.05,1.67,3.72,3.72,3.72
		c2.05,0,3.72-1.67,3.72-3.72C29.35,30.73,27.68,29.07,25.63,29.07z"/>
</g>
</svg>
