<?xml version="1.0" encoding="utf-8"?>
<!-- Generator: Adobe Illustrator 25.3.1, SVG Export Plug-In . SVG Version: 6.00 Build 0)  -->
<svg version="1.1" id="Layer_1" xmlns="http://www.w3.org/2000/svg" xmlns:xlink="http://www.w3.org/1999/xlink" x="0px" y="0px"
	 viewBox="0 0 100 100" style="enable-background:new 0 0 100 100;" xml:space="preserve">
<style type="text/css">
	.st0{fill:#FFFFFF;}
</style>
<g>
	<g>
		<defs>
			<circle id="SVGID_1_" cx="50" cy="50" r="50"/>
		</defs>
		<linearGradient id="SVGID_2_" gradientUnits="userSpaceOnUse" x1="0" y1="50" x2="100" y2="50">
			<stop  offset="0" style="stop-color:#FF006E"/>
			<stop  offset="1" style="stop-color:#B82F67"/>
		</linearGradient>
		<use xlink:href="#SVGID_1_"  style="overflow:visible;fill:url(#SVGID_2_);"/>
		<clipPath id="SVGID_3_">
			<use xlink:href="#SVGID_1_"  style="overflow:visible;"/>
		</clipPath>
	</g>
	<path class="st0" d="M64.1,60.2c-0.6,0-1.1,0.1-1.7,0.2L58,50.9h3.6c3.7,0,6.7-3,6.7-6.7V27.9c0-3.7-3-6.7-6.7-6.7H38.3
		c-3.7,0-6.7,3-6.7,6.7v16.3c0,3.7,3,6.7,6.7,6.7H42l-4.4,9.5c-0.5-0.1-1.1-0.2-1.7-0.2c-5.1,0-9.3,4.2-9.3,9.3
		c0,5.1,4.2,9.3,9.3,9.3c5.1,0,9.3-4.2,9.3-9.3c0-2.9-1.4-5.5-3.4-7.2l5.3-11.4h5.9l5.3,11.4c-2.1,1.7-3.4,4.3-3.4,7.2
		c0,5.1,4.2,9.3,9.3,9.3c5.1,0,9.3-4.2,9.3-9.3C73.4,64.3,69.2,60.2,64.1,60.2z"/>
</g>
</svg>
