<?xml version="1.0" encoding="utf-8"?>
<!-- Generator: Adobe Illustrator 25.3.1, SVG Export Plug-In . SVG Version: 6.00 Build 0)  -->
<svg version="1.1" id="Layer_1" xmlns="http://www.w3.org/2000/svg" xmlns:xlink="http://www.w3.org/1999/xlink" x="0px" y="0px"
	 viewBox="0 0 100 100" style="enable-background:new 0 0 100 100;" xml:space="preserve">
<path d="M74.5,67.7c-1,0-1.9,0.1-2.9,0.3L64,51.5h6.3c6.4,0,11.6-5.2,11.6-11.6V11.6C81.9,5.2,76.7,0,70.3,0H29.7
	c-6.4,0-11.6,5.2-11.6,11.6v28.3c0,6.4,5.2,11.6,11.6,11.6H36L28.4,68c-0.9-0.2-1.9-0.3-2.9-0.3c-8.9,0-16.2,7.2-16.2,16.2
	c0,8.9,7.2,16.2,16.2,16.2c8.9,0,16.2-7.2,16.2-16.2c0-5-2.4-9.5-6-12.4l9.2-19.9h10.2l9.2,19.9c-3.6,3-6,7.4-6,12.4
	c0,8.9,7.2,16.2,16.2,16.2c8.9,0,16.2-7.2,16.2-16.2C90.6,74.9,83.4,67.7,74.5,67.7z"/>
</svg>
